<?xml version="1.0" encoding="utf-8"?>
<svg xmlns="http://www.w3.org/2000/svg" style="margin: auto; display: block; shape-rendering: auto; background: rgba(0, 0, 0, 0) none repeat scroll 0% 0%;" width="1920" height="204" preserveAspectRatio="xMidYMid">
<style type="text/css">
  text {
    text-anchor: middle; font-size: 166px; opacity: 0;
  }
</style>
<g style="transform-origin: 960px 102px 0px; transform: scale(1.11409);">
<g transform="translate(960,102)">
  <g transform="translate(0,0)"><g class="path" style="transform: scale(0.91); transform-origin: -345.99px -12.7858px 0px; animation: 6.66667s linear -2.4s infinite normal forwards running breath-1565b16a-6d7d-4496-bef8-c8a709370820;"><path d="M8.94-52.15L8.94-52.15L8.94-52.15Q9.09-77.03 22.72-90.67L22.72-90.67L22.72-90.67Q36.36-104.30 60.34-104.30L60.34-104.30L70.03-104.30L70.03-91.19L58.56-91.19L58.56-91.19Q42.02-91.19 33.15-80.24L33.15-80.24L33.15-80.24Q24.29-69.28 23.99-52.15L23.99-52.15L23.99-52.15Q24.29-35.02 33.15-24.06L33.15-24.06L33.15-24.06Q42.02-13.11 58.56-13.11L58.56-13.11L70.03-13.11L70.03 0L60.34 0L60.34 0Q36.36 0 22.72-13.63L22.72-13.63L22.72-13.63Q9.09-27.27 8.94-52.15" fill="#e53a2f" stroke="none" stroke-width="none" transform="translate(-385.47496032714844,39.3641997680664)" style="fill: rgb(229, 58, 47);"></path></g><g class="path" style="transform: scale(0.91); transform-origin: -249.29px -12.7858px 0px; animation: 6.66667s linear -2.13333s infinite normal forwards running breath-1565b16a-6d7d-4496-bef8-c8a709370820;"><path d="M170.16-51.70L170.16-51.70L170.16-51.70Q170.01-60.05 167.70-67.50L167.70-67.50L167.70-67.50Q165.39-74.95 160.99-80.53L160.99-80.53L160.99-80.53Q156.60-86.12 150.34-89.40L150.34-89.40L150.34-89.40Q144.08-92.68 136.19-92.68L136.19-92.68L136.19-92.68Q128.29-92.68 122.03-89.40L122.03-89.40L122.03-89.40Q115.77-86.12 111.38-80.53L111.38-80.53L111.38-80.53Q106.98-74.95 104.67-67.50L104.67-67.50L104.67-67.50Q102.36-60.05 102.21-51.70L102.21-51.70L102.21-51.70Q102.36-43.21 104.67-35.91L104.67-35.91L104.67-35.91Q106.98-28.61 111.38-23.24L111.38-23.24L111.38-23.24Q115.77-17.88 122.03-14.75L122.03-14.75L122.03-14.75Q128.29-11.62 136.19-11.62L136.19-11.62L136.19-11.62Q144.08-11.62 150.34-14.75L150.34-14.75L150.34-14.75Q156.60-17.88 160.99-23.24L160.99-23.24L160.99-23.24Q165.39-28.61 167.70-35.91L167.70-35.91L167.70-35.91Q170.01-43.21 170.16-51.70zM87.16-51.70L87.16-51.70L87.16-51.70Q87.31-64.07 90.89-74.05L90.89-74.05L90.89-74.05Q94.47-84.04 100.87-91.11L100.87-91.11L100.87-91.11Q107.28-98.19 116.22-101.99L116.22-101.99L116.22-101.99Q125.16-105.79 136.19-105.79L136.19-105.79L136.19-105.79Q147.06-105.79 156.08-101.99L156.08-101.99L156.08-101.99Q165.09-98.19 171.50-91.11L171.50-91.11L171.50-91.11Q177.91-84.04 181.48-74.05L181.48-74.05L181.48-74.05Q185.06-64.07 185.21-51.70L185.21-51.70L185.21-51.70Q185.06-39.34 181.56-29.50L181.56-29.50L181.56-29.50Q178.06-19.67 171.65-12.81L171.65-12.81L171.65-12.81Q165.24-5.96 156.23-2.23L156.23-2.23L156.23-2.23Q147.21 1.49 136.19 1.49L136.19 1.49L136.19 1.49Q125.16 1.49 116.15-2.23L116.15-2.23L116.15-2.23Q107.13-5.96 100.72-12.81L100.72-12.81L100.72-12.81Q94.32-19.67 90.82-29.50L90.82-29.50L90.82-29.50Q87.31-39.34 87.16-51.70" fill="#e53a2f" stroke="none" stroke-width="none" transform="translate(-385.47496032714844,39.3641997680664)" style="fill: rgb(229, 58, 47);"></path></g><g class="path" style="transform: scale(0.91); transform-origin: -146.405px -11.2958px 0px; animation: 6.66667s linear -1.86667s infinite normal forwards running breath-1565b16a-6d7d-4496-bef8-c8a709370820;"><path d="M261.79-104.30L275.80-104.30L275.80-54.09L275.80-54.09Q275.80-33.97 266.56-19.15L266.56-19.15L266.56-19.15Q257.32-4.32 239.14 2.98L239.14 2.98L239.14 2.98Q221.12-4.17 211.73-18.63L211.73-18.63L211.73-18.63Q202.34-33.08 202.34-52.75L202.34-52.75L202.34-104.30L216.65-104.30L216.65-54.53L216.65-54.53Q216.65-39.63 221.56-29.50L221.56-29.50L221.56-29.50Q226.48-19.37 239.29-12.37L239.29-12.37L239.29-12.37Q251.81-19.52 256.80-29.65L256.80-29.65L256.80-29.65Q261.79-39.78 261.79-54.53L261.79-54.53L261.79-104.30" fill="#e53a2f" stroke="none" stroke-width="none" transform="translate(-385.47496032714844,39.3641997680664)" style="fill: rgb(229, 58, 47);"></path></g><g class="path" style="transform: scale(0.91); transform-origin: -84.05px -12.7858px 0px; animation: 6.66667s linear -1.6s infinite normal forwards running breath-1565b16a-6d7d-4496-bef8-c8a709370820;"><path d="M308.43-104.30L308.43 0L294.42 0L294.42-104.30L308.43-104.30" fill="#e53a2f" stroke="none" stroke-width="none" transform="translate(-385.47496032714844,39.3641997680664)" style="fill: rgb(229, 58, 47);"></path></g><g class="path" style="transform: scale(0.91); transform-origin: -20.35px -12.7858px 0px; animation: 6.66667s linear -1.33333s infinite normal forwards running breath-1565b16a-6d7d-4496-bef8-c8a709370820;"><path d="M400.96-52.15L400.96-52.15L400.96-52.15Q400.81-27.27 387.18-13.63L387.18-13.63L387.18-13.63Q373.54 0 349.55 0L349.55 0L329.29 0L329.29-104.30L349.55-104.30L349.55-104.30Q373.54-104.30 387.18-90.67L387.18-90.67L387.18-90.67Q400.81-77.03 400.96-52.15zM343.30-13.11L351.34-13.11L351.34-13.11Q367.88-13.11 376.75-24.06L376.75-24.06L376.75-24.06Q385.61-35.02 385.91-52.15L385.91-52.15L385.91-52.15Q385.61-69.28 376.75-80.24L376.75-80.24L376.75-80.24Q367.88-91.19 351.34-91.19L351.34-91.19L343.30-91.19L343.30-13.11" fill="#e53a2f" stroke="none" stroke-width="none" transform="translate(-385.47496032714844,39.3641997680664)" style="fill: rgb(229, 58, 47);"></path></g><g class="path" style="transform: scale(0.91); transform-origin: 46.03px 3.6042px 0px; animation: 6.66667s linear -1.06667s infinite normal forwards running breath-1565b16a-6d7d-4496-bef8-c8a709370820;"><path d="M448.19-41.72L448.19-29.80L414.82-29.80L414.82-41.72L448.19-41.72" fill="#e53a2f" stroke="none" stroke-width="none" transform="translate(-385.47496032714844,39.3641997680664)" style="fill: rgb(229, 58, 47);"></path></g><g class="path" style="transform: scale(0.91); transform-origin: 105.185px -13.4558px 0px; animation: 6.66667s linear -0.8s infinite normal forwards running breath-1565b16a-6d7d-4496-bef8-c8a709370820;"><path d="M523.44-76.14L523.44-76.14L523.44-76.14Q523.44-66.16 519.86-59.67L519.86-59.67L519.86-59.67Q516.28-53.19 508.02-46.49L508.02-46.49L508.02-46.49Q499.75-39.78 496.39-37.10L496.39-37.10L496.39-37.10Q493.04-34.42 488.12-30.17L488.12-30.17L488.12-30.17Q483.21-25.93 479.33-21.46L479.33-21.46L479.33-21.46Q475.46-16.99 474.42-14.01L474.42-14.01L522.54-14.01L522.54 0L459.37 0L459.37-6.56L459.37-6.56Q459.37-9.68 460.04-12.81L460.04-12.81L460.04-12.81Q460.71-15.94 463.02-20.79L463.02-20.79L463.02-20.79Q465.33-25.63 470.39-32.11L470.39-32.11L470.39-32.11Q475.46-38.59 496.62-54.68L496.62-54.68L496.62-54.68Q508.39-63.77 508.39-76.88L508.39-76.88L508.39-76.88Q508.39-83.29 503.77-87.69L503.77-87.69L503.77-87.69Q499.15-92.08 490.51-92.08L490.51-92.08L490.51-92.08Q476.65-92.08 468.90-75.99L468.90-75.99L457.88-85.23L457.88-85.23Q469.05-105.64 490.06-105.64L490.06-105.64L490.06-105.64Q505.71-105.64 514.57-97.89L514.57-97.89L514.57-97.89Q523.44-90.14 523.44-76.14" fill="#e53a2f" stroke="none" stroke-width="none" transform="translate(-385.47496032714844,39.3641997680664)" style="fill: rgb(229, 58, 47);"></path></g><g class="path" style="transform: scale(0.91); transform-origin: 191.005px -12.7858px 0px; animation: 6.66667s linear -0.533333s infinite normal forwards running breath-1565b16a-6d7d-4496-bef8-c8a709370820;"><path d="M541.17-36.80L541.17-36.80L541.17-36.80Q540.87-40.23 540.72-44.25L540.72-44.25L540.72-44.25Q540.57-48.28 540.57-52.60L540.57-52.60L540.57-52.60Q540.57-62.43 541.84-72.04L541.84-72.04L541.84-72.04Q543.10-81.65 546.90-89.10L546.90-89.10L546.90-89.10Q550.70-96.55 557.78-101.17L557.78-101.17L557.78-101.17Q564.86-105.79 576.48-105.79L576.48-105.79L576.48-105.79Q588.55-105.79 595.70-101.02L595.70-101.02L595.70-101.02Q602.85-96.25 606.50-88.66L606.50-88.66L606.50-88.66Q610.15-81.06 611.27-71.52L611.27-71.52L611.27-71.52Q612.39-61.98 612.39-52.60L612.39-52.60L612.39-52.60Q612.39-42.76 611.20-33.08L611.20-33.08L611.20-33.08Q610.01-23.39 606.21-15.72L606.21-15.72L606.21-15.72Q602.41-8.05 595.33-3.28L595.33-3.28L595.33-3.28Q588.25 1.49 576.48 1.49L576.48 1.49L576.48 1.49Q566.65 1.49 560.24-1.71L560.24-1.71L560.24-1.71Q553.83-4.92 549.88-10.28L549.88-10.28L549.88-10.28Q545.94-15.64 544.00-22.57L544.00-22.57L544.00-22.57Q542.06-29.50 541.17-36.80zM559.35-19.97L559.35-19.97L559.35-19.97Q564.11-11.62 576.48-11.62L576.48-11.62L576.48-11.62Q582.74-11.62 586.84-13.41L586.84-13.41L586.84-13.41Q590.93-15.20 593.47-19.74L593.47-19.74L593.47-19.74Q596-24.29 597.04-32.26L597.04-32.26L597.04-32.26Q598.09-40.23 598.09-52.60L598.09-52.60L598.09-52.60Q598.09-64.81 597.04-72.79L597.04-72.79L597.04-72.79Q596-80.76 593.47-85.38L593.47-85.38L593.47-85.38Q590.93-90.00 586.84-91.78L586.84-91.78L586.84-91.78Q582.74-93.57 576.48-93.57L576.48-93.57L576.48-93.57Q570.22-93.57 566.13-91.86L566.13-91.86L566.13-91.86Q562.03-90.14 559.50-85.53L559.50-85.53L559.50-85.53Q556.96-80.91 555.92-73.01L555.92-73.01L555.92-73.01Q554.88-65.11 554.88-52.60L554.88-52.60L554.88-52.60Q554.88-28.16 559.35-19.97" fill="#e53a2f" stroke="none" stroke-width="none" transform="translate(-385.47496032714844,39.3641997680664)" style="fill: rgb(229, 58, 47);"></path></g><g class="path" style="transform: scale(0.91); transform-origin: 272.655px -13.4558px 0px; animation: 6.66667s linear -0.266667s infinite normal forwards running breath-1565b16a-6d7d-4496-bef8-c8a709370820;"><path d="M690.91-76.14L690.91-76.14L690.91-76.14Q690.91-66.16 687.34-59.67L687.34-59.67L687.34-59.67Q683.76-53.19 675.49-46.49L675.49-46.49L675.49-46.49Q667.22-39.78 663.87-37.10L663.87-37.10L663.87-37.10Q660.52-34.42 655.60-30.17L655.60-30.17L655.60-30.17Q650.68-25.93 646.81-21.46L646.81-21.46L646.81-21.46Q642.93-16.99 641.89-14.01L641.89-14.01L690.02-14.01L690.02 0L626.84 0L626.84-6.56L626.84-6.56Q626.84-9.68 627.51-12.81L627.51-12.81L627.51-12.81Q628.18-15.94 630.49-20.79L630.49-20.79L630.49-20.79Q632.80-25.63 637.87-32.11L637.87-32.11L637.87-32.11Q642.93-38.59 664.09-54.68L664.09-54.68L664.09-54.68Q675.86-63.77 675.86-76.88L675.86-76.88L675.86-76.88Q675.86-83.29 671.24-87.69L671.24-87.69L671.24-87.69Q666.63-92.08 657.98-92.08L657.98-92.08L657.98-92.08Q644.13-92.08 636.38-75.99L636.38-75.99L625.35-85.23L625.35-85.23Q636.53-105.64 657.54-105.64L657.54-105.64L657.54-105.64Q673.18-105.64 682.05-97.89L682.05-97.89L682.05-97.89Q690.91-90.14 690.91-76.14" fill="#e53a2f" stroke="none" stroke-width="none" transform="translate(-385.47496032714844,39.3641997680664)" style="fill: rgb(229, 58, 47);"></path></g><g class="path" style="transform: scale(0.91); transform-origin: 358.485px -12.7858px 0px; animation: 6.66667s linear 0s infinite normal forwards running breath-1565b16a-6d7d-4496-bef8-c8a709370820;"><path d="M708.64-36.80L708.64-36.80L708.64-36.80Q708.35-40.23 708.20-44.25L708.20-44.25L708.20-44.25Q708.05-48.28 708.05-52.60L708.05-52.60L708.05-52.60Q708.05-62.43 709.31-72.04L709.31-72.04L709.31-72.04Q710.58-81.65 714.38-89.10L714.38-89.10L714.38-89.10Q718.18-96.55 725.26-101.17L725.26-101.17L725.26-101.17Q732.33-105.79 743.96-105.79L743.96-105.79L743.96-105.79Q756.03-105.79 763.18-101.02L763.18-101.02L763.18-101.02Q770.33-96.25 773.98-88.66L773.98-88.66L773.98-88.66Q777.63-81.06 778.75-71.52L778.75-71.52L778.75-71.52Q779.87-61.98 779.87-52.60L779.87-52.60L779.87-52.60Q779.87-42.76 778.67-33.08L778.67-33.08L778.67-33.08Q777.48-23.39 773.68-15.72L773.68-15.72L773.68-15.72Q769.88-8.05 762.81-3.28L762.81-3.28L762.81-3.28Q755.73 1.49 743.96 1.49L743.96 1.49L743.96 1.49Q734.12 1.49 727.72-1.71L727.72-1.71L727.72-1.71Q721.31-4.92 717.36-10.28L717.36-10.28L717.36-10.28Q713.41-15.64 711.47-22.57L711.47-22.57L711.47-22.57Q709.54-29.50 708.64-36.80zM726.82-19.97L726.82-19.97L726.82-19.97Q731.59-11.62 743.96-11.62L743.96-11.62L743.96-11.62Q750.21-11.62 754.31-13.41L754.31-13.41L754.31-13.41Q758.41-15.20 760.94-19.74L760.94-19.74L760.94-19.74Q763.48-24.29 764.52-32.26L764.52-32.26L764.52-32.26Q765.56-40.23 765.56-52.60L765.56-52.60L765.56-52.60Q765.56-64.81 764.52-72.79L764.52-72.79L764.52-72.79Q763.48-80.76 760.94-85.38L760.94-85.38L760.94-85.38Q758.41-90.00 754.31-91.78L754.31-91.78L754.31-91.78Q750.21-93.57 743.96-93.57L743.96-93.57L743.96-93.57Q737.70-93.57 733.60-91.86L733.60-91.86L733.60-91.86Q729.50-90.14 726.97-85.53L726.97-85.53L726.97-85.53Q724.44-80.91 723.39-73.01L723.39-73.01L723.39-73.01Q722.35-65.11 722.35-52.60L722.35-52.60L722.35-52.60Q722.35-28.16 726.82-19.97" fill="#e53a2f" stroke="none" stroke-width="none" transform="translate(-385.47496032714844,39.3641997680664)" style="fill: rgb(229, 58, 47);"></path></g></g>
</g>
</g>
<style id="breath-1565b16a-6d7d-4496-bef8-c8a709370820" data-anikit="">@keyframes breath-1565b16a-6d7d-4496-bef8-c8a709370820
{
  0% {
    animation-timing-function: cubic-bezier(0.9647,0.2413,-0.0705,0.7911);
    transform: scale(0.9099999999999999);
  }
  51% {
    animation-timing-function: cubic-bezier(0.9226,0.2631,-0.0308,0.7628);
    transform: scale(1.02994);
  }
  100% {
    transform: scale(0.9099999999999999);
  }
}</style></svg>